<?xml version="1.0" encoding="utf-8"?>
<!-- Generator: Adobe Illustrator 27.0.0, SVG Export Plug-In . SVG Version: 6.00 Build 0)  -->
<svg version="1.1" id="Layer_1" xmlns="http://www.w3.org/2000/svg" xmlns:xlink="http://www.w3.org/1999/xlink" x="0px" y="0px"
	 viewBox="0 0 19 19" style="enable-background:new 0 0 19 19;" xml:space="preserve">
<style type="text/css">
	.st0{fill:#1A73E8;}
</style>
<path class="st0" d="M17.6,19h-16c-0.6,0-1-0.6-1-1.4c0-0.7,0.4-1.4,1-1.4h16c0.6,0,1,0.6,1,1.4S18.1,19,17.6,19z"/>
<path class="st0" d="M17.6,10.9h-16c-0.6,0-1-0.6-1-1.4c0-0.7,0.4-1.4,1-1.4h16c0.6,0,1,0.6,1,1.4C18.6,10.3,18.1,10.9,17.6,10.9z"
	/>
<path class="st0" d="M17.6,2.8h-16c-0.6,0-1-0.6-1-1.4S1,0,1.6,0h16c0.6,0,1,0.6,1,1.4S18.1,2.8,17.6,2.8z"/>
</svg>
